<?xml version="1.0" encoding="UTF-8" standalone="no"?>
<!-- Created with Inkscape (http://www.inkscape.org/) -->

<svg
   width="100"
   height="100"
   viewBox="0 0 1 1"
   version="1.1"
   id="svg5"
   inkscape:version="1.2.2 (b0a8486541, 2022-12-01)"
   sodipodi:docname="favicon.svg"
   inkscape:export-filename="favicon.png"
   inkscape:export-xdpi="96"
   inkscape:export-ydpi="96"
   xmlns:inkscape="http://www.inkscape.org/namespaces/inkscape"
   xmlns:sodipodi="http://sodipodi.sourceforge.net/DTD/sodipodi-0.dtd"
   xmlns="http://www.w3.org/2000/svg"
   xmlns:svg="http://www.w3.org/2000/svg"
   xmlns:rdf="http://www.w3.org/1999/02/22-rdf-syntax-ns#"
   xmlns:cc="http://creativecommons.org/ns#">
  <sodipodi:namedview
     id="namedview7"
     pagecolor="#505050"
     bordercolor="#eeeeee"
     borderopacity="1"
     inkscape:showpageshadow="0"
     inkscape:pageopacity="0"
     inkscape:pagecheckerboard="true"
     inkscape:deskcolor="#505050"
     inkscape:document-units="mm"
     showgrid="true"
     inkscape:zoom="4.5820519"
     inkscape:cx="-6.5472851"
     inkscape:cy="62.963058"
     inkscape:window-width="1920"
     inkscape:window-height="1080"
     inkscape:window-x="0"
     inkscape:window-y="0"
     inkscape:window-maximized="1"
     inkscape:current-layer="layer1-3">
    <inkscape:grid
       type="xygrid"
       id="grid11"
       empspacing="5" />
  </sodipodi:namedview>
  <defs
     id="defs2" />
  <metadata
     id="metadata9">
    <rdf:RDF>
      <cc:Work
         rdf:about="" />
    </rdf:RDF>
  </metadata>
  <g
     inkscape:groupmode="layer"
     id="layer1"
     inkscape:label="Reference"
     style="display:none">
    <rect
       style="fill:#f47700;fill-opacity:1;stroke:#f47700;stroke-width:0.3;stroke-linecap:round;stroke-linejoin:round;stroke-dasharray:none;stroke-opacity:1"
       id="rect309"
       width="0.60000002"
       height="0.60000002"
       x="0.2"
       y="0.2" />
    <text
       xml:space="preserve"
       style="font-style:normal;font-variant:normal;font-weight:normal;font-stretch:normal;font-size:0.8px;font-family:Roboto;-inkscape-font-specification:Roboto;fill:#000000;fill-opacity:1;stroke:none;stroke-width:0.3;stroke-linecap:round;stroke-linejoin:round;stroke-dasharray:none;stroke-opacity:1"
       x="0.084799998"
       y="0.80360001"
       id="text3150"><tspan
         sodipodi:role="line"
         id="tspan3148"
         style="font-style:normal;font-variant:normal;font-weight:bold;font-stretch:normal;font-size:0.8px;font-family:System-ui;-inkscape-font-specification:'System-ui Bold';fill:#000000;fill-opacity:1;stroke:none;stroke-width:0.3"
         x="0.084799998"
         y="0.80360001">か</tspan></text>
  </g>
  <g
     inkscape:groupmode="layer"
     id="layer1-3"
     inkscape:label="Cutout"
     style="display:inline">
    <path
       id="path5136"
       style="display:inline;stroke-width:0.9999874;stroke-dasharray:none;color:#000000;fill:#f47700;stroke-linecap:round;stroke-linejoin:round"
       d="M 0.19921875 0.05078125 A 0.15001501 0.15001501 0 0 0 0.05078125 0.19921875 L 0.05078125 0.80078125 A 0.15001501 0.15001501 0 0 0 0.19921875 0.94921875 L 0.80078125 0.94921875 A 0.15001501 0.15001501 0 0 0 0.94921875 0.80078125 L 0.94921875 0.19921875 A 0.15001501 0.15001501 0 0 0 0.80078125 0.05078125 L 0.19921875 0.05078125 z M 0.33519531 0.15960937 L 0.45439453 0.17160156 C 0.44959454 0.19240154 0.444 0.21800783 0.44 0.23800781 L 0.42320313 0.32039062 C 0.4496031 0.31879063 0.47359064 0.31720703 0.49039063 0.31720703 C 0.57519054 0.31720703 0.63519531 0.35480011 0.63519531 0.47 C 0.63519531 0.56439991 0.62400934 0.69399382 0.58960937 0.76359375 C 0.5632094 0.81959369 0.51839838 0.83720703 0.45839844 0.83720703 C 0.42719847 0.83720703 0.38960232 0.83159609 0.36240234 0.82599609 L 0.34480469 0.72039063 C 0.37600466 0.72919062 0.42160315 0.73720703 0.44320313 0.73720703 C 0.4696031 0.73720703 0.49040314 0.72919294 0.50320312 0.70279297 C 0.5248031 0.65719301 0.53519531 0.56039133 0.53519531 0.48119141 C 0.53519531 0.41719147 0.50799761 0.40839844 0.45759766 0.40839844 C 0.44479767 0.40839844 0.42480232 0.41000156 0.40240234 0.41160156 C 0.37200237 0.53320144 0.31279915 0.72279074 0.23919922 0.84039063 L 0.13519531 0.79880859 C 0.21279524 0.6940087 0.2679969 0.53239286 0.29679688 0.42279297 L 0.22800781 0.43080078 C 0.20560783 0.43480078 0.1631992 0.44039454 0.13919922 0.44439453 L 0.12960937 0.33560547 C 0.15840935 0.33800547 0.18559534 0.33640547 0.21519531 0.33560547 C 0.23999529 0.33480547 0.27759848 0.33239843 0.31839844 0.32839844 C 0.32959843 0.2683985 0.33599531 0.21000933 0.33519531 0.15960937 z M 0.72960938 0.24679687 C 0.77920933 0.31559681 0.84639065 0.46839461 0.87039062 0.54439453 L 0.76880859 0.59160156 C 0.74800861 0.50280165 0.69119448 0.35799759 0.63439453 0.28759766 L 0.72960938 0.24679687 z " />
  </g>
</svg>
